<?xml version="1.0" encoding="iso-8859-1"?>
<!-- Generator: Adobe Illustrator 25.2.3, SVG Export Plug-In . SVG Version: 6.00 Build 0)  -->
<svg version="1.1" id="Layer_1" xmlns="http://www.w3.org/2000/svg" xmlns:xlink="http://www.w3.org/1999/xlink" x="0px" y="0px"
	 viewBox="0 0 48 48" style="enable-background:new 0 0 48 48;" xml:space="preserve">
<g id="_x3C_Radial_Repeat_x3E__55_">
	<polygon style="fill:#546E7A;" points="21.906,31.772 24.507,29.048 27.107,31.772 27.107,43 21.906,43 	"/>
</g>
<g id="_x3C_Radial_Repeat_x3E__52_">
	<polygon style="fill:#F50057;" points="17.737,29.058 21.442,28.383 21.945,32.115 15.345,41.199 11.138,38.141 	"/>
</g>
<g id="_x3C_Radial_Repeat_x3E__49_">
	<polygon style="fill:#D500F9;" points="15.962,24.409 19.355,26.041 17.569,29.356 6.89,32.825 5.283,27.879 	"/>
</g>
<g id="_x3C_Radial_Repeat_x3E__46_">
	<polygon style="fill:#29B6F6;" points="17.256,19.607 19.042,22.922 15.649,24.554 4.97,21.084 6.577,16.137 	"/>
</g>
<g id="_x3C_Radial_Repeat_x3E__43_">
	<polygon style="fill:#00E5FF;" points="21.126,16.482 20.623,20.214 16.918,19.539 10.318,10.455 14.526,7.398 	"/>
</g>
<g id="_x3C_Radial_Repeat_x3E__40_">
	<polygon style="fill:#546E7A;" points="26.094,16.228 23.493,18.952 20.893,16.228 20.893,5 26.094,5 	"/>
</g>
<g id="_x3C_Radial_Repeat_x3E__37_">
	<polygon style="fill:#F50057;" points="30.262,18.943 26.558,19.618 26.055,15.886 32.654,6.802 36.862,9.859 	"/>
</g>
<g id="_x3C_Radial_Repeat_x3E__34_">
	<polygon style="fill:#D500F9;" points="32.039,23.59 28.645,21.958 30.431,18.643 41.11,15.174 42.717,20.12 	"/>
</g>
<g id="_x3C_Radial_Repeat_x3E__11_">
	<polygon style="fill:#29B6F6;" points="30.744,28.393 28.958,25.078 32.351,23.447 43.03,26.916 41.423,31.863 	"/>
</g>
<g id="_x3C_Radial_Repeat_x3E__8_">
	<polygon style="fill:#00E5FF;" points="26.874,31.518 27.378,27.786 31.082,28.461 37.682,37.545 33.474,40.602 	"/>
</g>
</svg>