<svg width="664" height="665" viewBox="0 0 664 665" fill="none" xmlns="http://www.w3.org/2000/svg">
<g clip-path="url(#clip0_1_2)">
<path opacity="0.2" d="M663.459 504.085V333.877H663.999V331.998H663.459V161.791C663.449 120.049 647.205 79.9474 618.163 49.9658V46.8775H663.459V44.9858H619.475L661.709 2.52078L660.422 1.23396L618.201 43.699V2.1476H616.323V44.9858H613.131C583.581 16.7383 544.283 0.962883 503.404 0.937988H160.042C119.18 0.976116 79.9032 16.7505 50.3661 44.9858H47.162V2.1476H45.2961V43.6604L3.0755 1.19535L1.78868 2.48217L44.0092 44.9472H2.67659V46.826H45.2961V49.9658C16.25 79.9451 0.00579511 120.048 0 161.791V504.085C0.00579511 545.827 16.25 585.93 45.2961 615.909V619.049H2.67659V620.928H43.9706L1.75008 663.393L3.0369 664.68L45.2575 622.215V663.728H47.1234V620.889H50.3275C79.8742 649.134 119.167 664.909 160.042 664.937H503.404C544.27 664.902 583.552 649.128 613.093 620.889H616.284V663.728H618.163V622.215L660.383 664.68L661.67 663.393L619.437 620.928H663.999V619.049H618.163V615.909C647.198 585.923 663.441 545.825 663.459 504.085ZM661.58 504.085C661.577 544.662 646.041 583.698 618.163 613.181V451.904H660.911V450.038H618.163V333.877H661.58V504.085ZM449.525 450.038L448.238 448.751C450.374 446.581 452.446 444.35 454.453 442.06V450.038H449.525ZM454.453 451.917V454.993L451.391 451.917H454.453ZM210.073 450.038V443.282C211.746 445.148 213.471 446.963 215.221 448.751L213.934 450.038H210.073ZM212.068 451.917L210.073 453.899V451.904L212.068 451.917ZM213.934 215.837L215.221 217.124C213.471 218.912 211.746 220.74 210.073 222.593V215.837H213.934ZM210.073 213.958V211.977L212.068 213.971L210.073 213.958ZM454.453 215.837V223.815C452.446 221.525 450.374 219.294 448.238 217.124L449.525 215.837H454.453ZM451.391 213.958L454.453 210.883V213.958H451.391ZM454.453 331.985H450.052C449.857 301.112 437.666 271.524 416.055 249.474L446.938 218.462C449.512 221.096 452.026 223.828 454.479 226.659L454.453 331.985ZM456.319 228.885C480.321 257.894 493.511 294.334 493.637 331.985H456.319V228.885ZM414.729 250.761C436.001 272.447 448 301.558 448.187 331.934H333.981L414.729 250.761ZM332.669 330.544V215.837C362.941 216.048 391.925 228.115 413.404 249.449L332.669 330.544ZM330.79 330.544L250.042 249.359C271.545 228.064 300.528 216.032 330.79 215.837V330.544ZM329.503 331.831H215.272C215.466 301.456 227.464 272.348 248.729 250.658L329.503 331.831ZM329.503 333.71L248.755 414.882C227.49 393.193 215.492 364.084 215.298 333.71H329.503ZM330.79 334.997V450.038C300.512 449.826 271.523 437.754 250.042 416.414L330.79 334.997ZM332.669 334.997L413.404 416.169C391.969 437.601 362.979 449.763 332.669 450.038V334.997ZM333.956 333.71H448.148C447.961 364.086 435.962 393.197 414.691 414.882L333.956 333.71ZM445.587 217.124L414.704 248.149C397.752 231.332 376.09 220.063 352.589 215.837H444.275L445.587 217.124ZM332.669 213.958V170.116C373.451 170.316 412.636 185.99 442.306 213.971L332.669 213.958ZM330.79 213.958H221.153C250.817 185.969 290.006 170.294 330.79 170.103V213.958ZM310.857 215.837C287.349 220.064 265.678 231.332 248.717 248.149L217.833 217.124L219.12 215.837H310.857ZM216.546 218.411L247.43 249.423C225.809 271.466 213.615 301.058 213.432 331.934H210.099V225.437C212.171 223.056 214.32 220.727 216.546 218.475V218.411ZM208.208 331.934H169.77C169.914 293.706 183.523 256.751 208.208 227.56V331.934ZM208.208 333.813V438.187C183.523 408.996 169.914 372.041 169.77 333.813H208.208ZM210.073 333.813H213.406C213.587 364.685 225.781 394.274 247.404 416.311L216.52 447.336C214.294 445.084 212.145 442.755 210.086 440.374L210.073 333.813ZM217.872 448.751L248.755 417.726C265.707 434.537 287.362 445.804 310.857 450.038H219.184L217.872 448.751ZM330.79 451.917V495.772C290.006 495.581 250.817 479.906 221.153 451.917H330.79ZM332.669 451.917H442.306C412.636 479.898 373.451 495.572 332.669 495.772V451.917ZM352.589 450.038C376.099 445.817 397.771 434.548 414.729 417.726L445.613 448.751L444.326 450.038H352.589ZM446.913 447.465L416.029 416.439C437.643 394.397 449.835 364.812 450.027 333.941H454.428V439.268C452.026 442.047 449.521 444.779 446.913 447.465ZM456.319 333.941H493.637C493.511 371.592 480.321 408.032 456.319 437.041V333.941ZM495.554 332.063C495.411 293.201 481.511 255.645 456.319 226.054V215.837H555.276C573.903 251.725 583.668 291.551 583.753 331.985L495.554 332.063ZM456.319 214.035V209.068L510.597 154.52C527.98 172.126 542.698 192.176 554.285 214.035H456.319ZM456.319 206.417V112.66C475.677 123.752 493.482 137.355 509.272 153.117L456.319 206.417ZM454.453 208.296L448.753 214.035H445.034C414.881 184.857 374.627 168.446 332.669 168.225V79.5884C375.332 79.6821 417.26 90.7046 454.453 111.605V208.296ZM330.79 168.225C288.842 168.423 248.589 184.806 218.425 213.958H214.706L210.073 209.3V110.987C247.008 90.475 288.542 79.6676 330.79 79.5756V168.225ZM208.208 207.434L154.161 153.117C170.252 137.067 188.431 123.255 208.208 112.055V207.434ZM208.208 210.098V213.958H109.122C120.705 192.096 135.424 172.045 152.81 154.443L208.208 210.098ZM208.208 215.85V224.729C182.35 254.5 168.043 292.566 167.891 331.998H79.7056C79.789 291.56 89.5537 251.729 108.183 215.837L208.208 215.85ZM167.891 333.877C168.043 373.309 182.35 411.376 208.208 441.146V450.038H108.183C89.5557 414.15 79.7911 374.324 79.7056 333.89L167.891 333.877ZM208.208 451.904V455.765L152.874 511.394C135.488 493.791 120.77 473.741 109.187 451.878L208.208 451.904ZM208.208 458.441V553.82C188.431 542.62 170.252 528.808 154.161 512.758L208.208 458.441ZM210.073 456.562L214.706 451.904H218.425C248.587 481.061 288.84 497.449 330.79 497.651V586.313C288.542 586.21 247.009 575.398 210.073 554.888V456.562ZM332.669 497.651C374.617 497.45 414.869 481.067 445.034 451.917H448.753L454.453 457.656V554.271C417.259 575.169 375.332 586.195 332.669 586.3V497.651ZM456.319 459.535L509.272 512.771C493.476 528.526 475.672 542.129 456.319 553.228V459.535ZM456.319 456.884V451.917H554.285C542.698 473.777 527.98 493.827 510.597 511.432L456.319 456.884ZM456.319 450.038V439.898C481.511 410.307 495.411 372.752 495.554 333.89H583.753C583.668 374.324 573.903 414.15 555.276 450.038H456.319ZM585.619 333.89H616.284V450.038H557.386C575.862 414.1 585.539 374.287 585.619 333.877V333.89ZM585.619 332.011C585.541 291.597 575.864 251.78 557.386 215.837H616.284V331.985L585.619 332.011ZM556.395 213.984C544.651 191.619 529.664 171.113 511.923 153.13L615.1 49.4511L615.19 49.5283C615.576 49.9272 615.962 50.3519 616.348 50.8151V213.971L556.395 213.984ZM613.685 48.1514L510.597 151.792C494.435 135.66 476.179 121.771 456.319 110.498V46.8646H612.346L613.685 48.1514ZM454.453 109.456C417.202 88.7297 375.298 77.8021 332.669 77.6968V46.8131H454.453V109.456ZM332.669 44.9858V2.81674H454.453V44.9858H332.669ZM330.79 44.9858H210.073V2.81674H330.79V44.9858ZM330.79 46.8646V77.7483C288.576 77.8471 247.064 88.5603 210.073 108.902V46.8646H330.79ZM208.208 109.919C187.938 121.29 169.32 135.383 152.874 151.805L49.7871 48.1643L51.0739 46.8775H208.208V109.919ZM48.333 49.5283L48.4102 49.4511L151.536 153.117C133.787 171.096 118.796 191.603 107.051 213.971H47.162V50.7637C47.6124 50.3519 47.9341 49.9272 48.333 49.5283ZM106.073 215.837C87.5987 251.772 77.9223 291.58 77.8398 331.985H47.162V215.837H106.073ZM77.8398 333.864C77.9183 374.278 87.5948 414.096 106.073 450.038H47.162V333.877L77.8398 333.864ZM107.051 451.891C118.796 474.259 133.787 494.766 151.536 512.745L48.4102 616.424L48.333 616.347C47.9341 615.948 47.5609 615.523 47.162 615.06V451.904L107.051 451.891ZM49.7742 617.724L152.861 514.083C169.311 530.506 187.927 544.602 208.195 555.982V619.036H51.1125L49.7742 617.724ZM210.073 557.025C247.064 577.366 288.576 588.08 330.79 588.178V619.062H210.073V557.025ZM330.79 620.889V663.058H210.073V620.889H330.79ZM332.669 620.889H454.453V663.058H332.669V620.889ZM332.669 619.011V588.127C375.298 588.022 417.202 577.094 454.453 556.368V618.959L332.669 619.011ZM456.319 555.377C476.179 544.104 494.435 530.216 510.597 514.083L613.685 617.724L612.398 619.011H456.319V555.377ZM615.1 616.347L615.01 616.424L511.897 512.758C529.639 494.775 544.625 474.269 556.37 451.904H616.258V615.112L615.1 616.347ZM661.58 161.791V331.998H618.163V215.837H660.911V213.958H618.163V52.7325C646.032 82.2061 661.567 121.227 661.58 161.791ZM610.39 44.9472H456.319V2.81674H503.404C543.114 2.84607 581.34 17.9129 610.39 44.9858V44.9472ZM160.003 2.77814H208.208V44.9472H53.0685C82.1211 17.8902 120.341 2.83755 160.042 2.81674L160.003 2.77814ZM1.86589 504.085V161.791C1.87391 121.212 17.4138 82.1759 45.2961 52.6939V213.932H2.57364V215.837H45.2961V331.985H2.41922V333.864H45.2961V450.038H2.57364V451.917H45.2961V613.156C17.4199 583.68 1.88049 544.654 1.86589 504.085ZM53.0685 620.928H208.208V663.097H160.042C120.331 663.055 82.1092 647.975 53.0685 620.889V620.928ZM503.456 663.097H456.319V620.889H610.39C581.338 647.96 543.114 663.027 503.404 663.058L503.456 663.097Z" fill="url(#paint0_radial_1_2)"/>
<mask id="mask0_1_2" style="mask-type:alpha" maskUnits="userSpaceOnUse" x="-13" y="0" width="592" height="665">
<path d="M578.988 0H-12.7969V664.938H578.988V0Z" fill="url(#paint1_linear_1_2)"/>
</mask>
<g mask="url(#mask0_1_2)">
<path d="M82.8643 584.71C82.8643 579.582 82.8643 577.019 83.8779 575.067C84.7321 573.423 86.0729 572.082 87.7173 571.228C89.6687 570.214 92.2324 570.214 97.3597 570.214H147.148C152.276 570.214 154.839 570.214 156.791 571.228C158.435 572.082 159.776 573.423 160.63 575.067C161.644 577.019 161.644 579.582 161.644 584.71V634.499C161.644 639.626 161.644 642.19 160.63 644.141C159.776 645.785 158.435 647.126 156.791 647.98C154.839 648.994 152.276 648.994 147.148 648.994H97.3597C92.2324 648.994 89.6687 648.994 87.7173 647.98C86.0729 647.126 84.7321 645.785 83.8779 644.141C82.8643 642.19 82.8643 639.626 82.8643 634.499V584.71Z" fill="white" fill-opacity="0.1"/>
<path d="M147.148 569.745H97.3597H97.3374C94.7926 569.745 92.8539 569.745 91.3087 569.874C89.7534 570.003 88.5549 570.264 87.5012 570.812C85.7711 571.711 84.3605 573.121 83.4618 574.851C82.9144 575.905 82.6528 577.104 82.5236 578.659C82.3953 580.204 82.3953 582.143 82.3953 584.687V584.71V634.499V634.521C82.3953 637.066 82.3953 639.004 82.5236 640.55C82.6528 642.105 82.9144 643.303 83.4618 644.357C84.3605 646.087 85.7711 647.498 87.5012 648.396C88.5549 648.944 89.7534 649.205 91.3087 649.335C92.8538 649.463 94.7924 649.463 97.3371 649.463H97.3597H147.148H147.171C149.716 649.463 151.654 649.463 153.199 649.335C154.755 649.205 155.953 648.944 157.007 648.396C158.737 647.498 160.148 646.087 161.046 644.357C161.594 643.303 161.855 642.105 161.985 640.55C162.113 639.004 162.113 637.066 162.113 634.521V634.499V584.71V584.687C162.113 582.143 162.113 580.204 161.985 578.659C161.855 577.104 161.594 575.905 161.046 574.851C160.148 573.121 158.737 571.711 157.007 570.812C155.953 570.264 154.755 570.003 153.199 569.874C151.654 569.745 149.716 569.745 147.171 569.745H147.148Z" stroke="white" stroke-opacity="0.2" stroke-width="0.937853"/>
<mask id="mask1_1_2" style="mask-type:luminance" maskUnits="userSpaceOnUse" x="95" y="582" width="55" height="55">
<path d="M149.451 582.407H95.0557V636.803H149.451V582.407Z" fill="white"/>
</mask>
<g mask="url(#mask1_1_2)">
<path d="M98.4551 582.407H146.051L141.722 631.279L122.201 636.802L102.789 631.277L98.4551 582.407ZM137.189 592.409L107.317 592.402L107.8 598.345L130.748 598.349L130.17 604.505H115.12L115.664 610.337H129.676L128.846 618.321L122.251 620.144L115.551 618.308L115.125 613.525H109.21L109.867 622.263L122.253 626.123L134.431 622.655L137.189 592.411V592.409Z" fill="white"/>
</g>
<path d="M359.185 66.2432H309.479C301.709 66.2432 295.411 72.5415 295.411 80.311V130.017C295.411 137.787 301.709 144.085 309.479 144.085H359.185C366.955 144.085 373.253 137.787 373.253 130.017V80.311C373.253 72.5415 366.955 66.2432 359.185 66.2432Z" fill="white" fill-opacity="0.1"/>
<path d="M359.185 65.7742H309.479C301.451 65.7742 294.942 72.2825 294.942 80.311V130.017C294.942 138.046 301.451 144.554 309.479 144.554H359.185C367.214 144.554 373.722 138.046 373.722 130.017V80.311C373.722 72.2826 367.214 65.7742 359.185 65.7742Z" stroke="white" stroke-opacity="0.2" stroke-width="0.937853"/>
<path d="M347.7 127.057C349.268 129.617 351.308 131.499 354.916 131.499C357.947 131.499 359.883 129.984 359.883 127.891C359.883 125.383 357.894 124.494 354.558 123.035L352.729 122.251C347.451 120.002 343.944 117.185 343.944 111.229C343.944 105.743 348.124 101.567 354.657 101.567C359.307 101.567 362.651 103.186 365.06 107.424L359.364 111.081C358.11 108.832 356.757 107.946 354.657 107.946C352.514 107.946 351.156 109.305 351.156 111.081C351.156 113.275 352.515 114.164 355.654 115.523L357.482 116.306C363.697 118.971 367.206 121.688 367.206 127.797C367.206 134.383 362.033 137.991 355.085 137.991C348.292 137.991 343.903 134.753 341.756 130.51L347.7 127.057ZM321.861 127.691C323.01 129.73 324.055 131.453 326.568 131.453C328.971 131.453 330.487 130.513 330.487 126.857V101.985H337.802V126.956C337.802 134.53 333.361 137.977 326.879 137.977C321.023 137.977 317.631 134.946 315.906 131.296L321.861 127.691Z" fill="white"/>
<path d="M194.812 25.6665H146.044C137.756 25.6665 131.038 32.3847 131.038 40.6721V89.4405C131.038 97.7279 137.756 104.446 146.044 104.446H194.812C203.099 104.446 209.818 97.7279 209.818 89.4405V40.6721C209.818 32.3847 203.099 25.6665 194.812 25.6665Z" fill="white" fill-opacity="0.1"/>
<path d="M194.812 25.1976H146.044C137.497 25.1976 130.569 32.1258 130.569 40.6722V89.4405C130.569 97.9869 137.497 104.915 146.044 104.915H194.812C203.358 104.915 210.287 97.9869 210.287 89.4405V40.6722C210.287 32.1258 203.358 25.1976 194.812 25.1976Z" stroke="white" stroke-opacity="0.2" stroke-width="0.937853"/>
<path d="M170.251 75.8998C186.823 76.1697 200.337 71.5352 200.434 65.5484C200.532 59.5616 187.176 54.4895 170.604 54.2196C154.031 53.9497 140.518 58.5842 140.42 64.571C140.323 70.5579 153.678 75.6299 170.251 75.8998Z" stroke="white" stroke-width="2.73905"/>
<path d="M160.416 70.3146C168.481 84.0287 179.501 92.7918 185.03 89.8876C190.558 86.9834 188.502 73.5117 180.437 59.7977C172.372 46.0837 161.352 37.3206 155.823 40.2248C150.295 43.1289 152.351 56.6006 160.416 70.3146Z" stroke="white" stroke-width="2.73905"/>
<path d="M160.594 59.4744C152.087 72.9185 149.593 86.3161 155.024 89.3988C160.455 92.4814 171.755 84.0818 180.262 70.6377C188.769 57.1935 191.263 43.7959 185.832 40.7133C180.401 37.6306 169.101 46.0303 160.594 59.4744Z" stroke="white" stroke-width="2.73905"/>
<path fill-rule="evenodd" clip-rule="evenodd" d="M181.769 65.3149C180.993 63.7267 180.128 62.1146 179.176 60.4962C178.225 58.8792 177.234 57.3351 176.218 55.8747C174.377 55.714 172.47 55.6142 170.513 55.5823C168.557 55.5505 166.647 55.5882 164.802 55.6888C163.738 57.1153 162.698 58.6263 161.695 60.2115C160.691 61.798 159.774 63.3811 158.946 64.9432C159.722 66.5311 160.587 68.143 161.539 69.7611C162.491 71.3806 163.484 72.9271 164.502 74.3895C166.342 74.55 168.248 74.6497 170.202 74.6815C172.157 74.7134 174.065 74.6758 175.909 74.5753C176.974 73.1468 178.017 71.6335 179.021 70.0458C180.025 68.4595 180.942 66.8767 181.769 65.3149Z" fill="white" fill-opacity="0.2"/>
<path d="M170.365 70.3479C173.454 70.3982 175.996 68.0701 176.044 65.1479C176.091 62.2258 173.626 59.8162 170.538 59.7659C167.449 59.7156 164.907 62.0437 164.859 64.9658C164.812 67.8879 167.277 70.2976 170.365 70.3479Z" fill="white"/>
<path d="M480.475 333.679L429.834 333.099C422.065 333.01 415.695 339.236 415.606 347.005L415.026 397.646C414.937 405.415 421.163 411.785 428.932 411.874L479.572 412.454C487.341 412.543 493.711 406.317 493.8 398.548L494.38 347.907C494.469 340.138 488.244 333.768 480.475 333.679Z" fill="white" fill-opacity="0.1"/>
<path d="M480.48 333.211L429.839 332.63C421.811 332.539 415.228 338.972 415.137 347L414.557 397.641C414.465 405.668 420.898 412.251 428.926 412.343L479.567 412.923C487.594 413.015 494.177 406.581 494.269 398.554L494.849 347.913C494.941 339.885 488.507 333.302 480.48 333.211Z" stroke="white" stroke-opacity="0.2" stroke-width="0.937853"/>
<path d="M275.124 166H224.48C216.71 166 210.412 172.298 210.412 180.068V230.712C210.412 238.481 216.71 244.78 224.48 244.78H275.124C282.893 244.78 289.192 238.481 289.192 230.712V180.068C289.192 172.298 282.893 166 275.124 166Z" fill="white" fill-opacity="0.1"/>
<path d="M275.124 165.531H224.48C216.451 165.531 209.943 172.039 209.943 180.068V230.712C209.943 238.74 216.451 245.249 224.48 245.249H275.124C283.152 245.249 289.661 238.74 289.661 230.712V180.068C289.661 172.039 283.152 165.531 275.124 165.531Z" stroke="white" stroke-opacity="0.2" stroke-width="0.937853"/>
<path d="M425.332 216.795H374.688C366.918 216.795 360.62 223.093 360.62 230.863V281.507C360.62 289.276 366.918 295.575 374.688 295.575H425.332C433.101 295.575 439.4 289.276 439.4 281.507V230.863C439.4 223.093 433.101 216.795 425.332 216.795Z" fill="white" fill-opacity="0.1"/>
<path d="M425.332 216.326H374.688C366.659 216.326 360.151 222.834 360.151 230.863V281.507C360.151 289.535 366.659 296.043 374.688 296.043H425.332C433.36 296.043 439.869 289.535 439.869 281.507V230.863C439.869 222.834 433.36 216.326 425.332 216.326Z" stroke="white" stroke-opacity="0.2" stroke-width="0.937853"/>
<path d="M322.855 303.864H260.217C256.019 303.864 252.615 307.268 252.615 311.466V374.104C252.615 378.303 256.019 381.706 260.217 381.706H322.855C327.054 381.706 330.457 378.303 330.457 374.104V311.466C330.457 307.268 327.054 303.864 322.855 303.864Z" fill="white" fill-opacity="0.1"/>
<path d="M322.855 303.395H260.217C255.76 303.395 252.146 307.009 252.146 311.466V374.104C252.146 378.562 255.76 382.175 260.217 382.175H322.855C327.313 382.175 330.926 378.562 330.926 374.104V311.466C330.926 307.009 327.313 303.395 322.855 303.395Z" stroke="white" stroke-opacity="0.2" stroke-width="0.937853"/>
<path fill-rule="evenodd" clip-rule="evenodd" d="M300.517 365.852V373.454C301.748 374.093 303.253 374.564 304.926 374.883C306.598 375.202 308.422 375.354 310.247 375.354C312.071 375.354 313.744 375.187 315.416 374.838C317.088 374.488 318.457 373.91 319.673 373.165C320.904 372.359 321.954 371.341 322.562 369.972C323.17 368.604 323.641 367.084 323.641 365.107C323.641 363.724 323.428 362.523 323.018 361.458C322.607 360.394 322.014 359.482 321.193 358.722C320.418 357.916 319.521 357.201 318.457 356.593C317.392 355.985 316.176 355.347 314.808 354.769C313.804 354.358 312.983 353.963 312.071 353.568C311.281 353.173 310.597 352.777 310.095 352.382C309.532 351.971 309.107 351.546 308.803 351.105C308.498 350.649 308.346 350.147 308.346 349.585C308.346 349.068 308.482 348.596 308.757 348.171C309.032 347.745 309.411 347.395 309.897 347.091C310.384 346.787 310.992 346.559 311.722 346.392C312.436 346.225 313.227 346.149 314.154 346.149C314.793 346.149 315.462 346.196 316.131 346.291C316.83 346.387 317.545 346.535 318.259 346.732C318.974 346.93 319.673 347.173 320.388 347.477C321.057 347.781 321.68 348.131 322.212 348.526V341.381C321.057 340.94 319.779 340.605 318.411 340.393C317.043 340.18 315.522 340.073 313.698 340.073C311.874 340.073 310.201 340.271 308.529 340.651C306.856 341.031 305.488 341.639 304.272 342.475C303.04 343.296 302.143 344.3 301.383 345.668C300.669 346.945 300.319 348.405 300.319 350.229C300.319 352.51 300.973 354.486 302.295 356.006C303.603 357.679 305.64 358.895 308.225 360.111C309.274 360.537 310.201 360.963 311.113 361.373C312.026 361.784 312.786 362.21 313.394 362.65C314.048 363.091 314.565 363.578 314.914 364.095C315.294 364.612 315.492 365.22 315.492 365.919C315.492 366.406 315.373 366.862 315.142 367.287C314.911 367.713 314.549 368.078 314.063 368.382C313.576 368.686 312.983 368.929 312.239 369.112C311.524 369.279 310.718 369.37 309.654 369.37C307.982 369.37 306.309 369.081 304.789 368.504C303.116 367.926 301.596 367.059 300.228 365.919L300.517 365.852ZM287.746 347.152H297.476V340.919H270.262V347.152H279.992V374.974H287.746V347.152Z" fill="white"/>
<path d="M347.339 440.791H296.695C288.925 440.791 282.627 447.089 282.627 454.859V505.503C282.627 513.272 288.925 519.571 296.695 519.571H347.339C355.108 519.571 361.407 513.272 361.407 505.503V454.859C361.407 447.089 355.108 440.791 347.339 440.791Z" fill="white" fill-opacity="0.1"/>
<path d="M347.339 440.322H296.695C288.666 440.322 282.158 446.83 282.158 454.859V505.503C282.158 513.531 288.666 520.039 296.695 520.039H347.339C355.367 520.039 361.876 513.531 361.876 505.503V454.859C361.876 446.83 355.367 440.322 347.339 440.322Z" stroke="white" stroke-opacity="0.2" stroke-width="0.937853"/>
<mask id="mask2_1_2" style="mask-type:luminance" maskUnits="userSpaceOnUse" x="294" y="452" width="56" height="56">
<path d="M349.367 452.982H294.818V507.531H349.367V452.982Z" fill="white"/>
</mask>
<g mask="url(#mask2_1_2)">
<path d="M322.093 453.657C307.025 453.657 294.818 465.874 294.818 480.932C294.818 492.989 302.633 503.208 313.462 506.814C314.831 507.071 315.326 506.227 315.326 505.498C315.326 504.85 315.31 503.137 315.3 500.863C307.709 502.506 306.11 497.196 306.11 497.196C304.867 494.052 303.074 493.209 303.074 493.209C300.606 491.523 303.27 491.559 303.27 491.559C306.004 491.744 307.443 494.363 307.443 494.363C309.876 498.536 313.825 497.329 315.389 496.627C315.627 494.869 316.338 493.66 317.112 492.987C311.057 492.303 304.69 489.96 304.69 479.508C304.69 476.523 305.747 474.093 307.494 472.183C307.193 471.5 306.269 468.721 307.735 464.964C307.735 464.964 310.017 464.236 315.235 467.761C317.419 467.156 319.737 466.855 322.054 466.839C324.372 466.855 326.689 467.158 328.872 467.761C334.06 464.236 336.341 464.964 336.341 464.964C337.805 468.721 336.881 471.498 336.615 472.183C338.345 474.093 339.402 476.525 339.402 479.508C339.402 489.983 333.027 492.293 326.965 492.96C327.913 493.776 328.801 495.455 328.801 498.004C328.801 501.652 328.767 504.591 328.767 505.479C328.767 506.188 329.244 507.04 330.649 506.766C341.559 503.198 349.364 492.97 349.364 480.93C349.364 465.873 337.157 453.655 322.09 453.655L322.093 453.657Z" fill="white"/>
</g>
<path d="M194.468 416.407H143.824C136.054 416.407 129.756 422.705 129.756 430.475V481.119C129.756 488.888 136.054 495.187 143.824 495.187H194.468C202.237 495.187 208.536 488.888 208.536 481.119V430.475C208.536 422.705 202.237 416.407 194.468 416.407Z" fill="white" fill-opacity="0.1"/>
<path d="M194.468 415.938H143.824C135.795 415.938 129.287 422.446 129.287 430.475V481.119C129.287 489.147 135.795 495.655 143.824 495.655H194.468C202.496 495.655 209.005 489.147 209.005 481.119V430.475C209.005 422.446 202.496 415.938 194.468 415.938Z" stroke="white" stroke-opacity="0.2" stroke-width="0.937853"/>
<path d="M194.178 438.911L170.971 480.409C170.492 481.266 169.261 481.271 168.774 480.418L145.107 438.915C144.577 437.986 145.372 436.86 146.425 437.049L169.657 441.201C169.805 441.228 169.957 441.227 170.105 441.2L192.851 437.054C193.9 436.863 194.698 437.98 194.178 438.911Z" fill="url(#paint2_linear_1_2)"/>
<path d="M180.723 431.602L163.549 434.967C163.412 434.994 163.288 435.066 163.196 435.171C163.104 435.276 163.049 435.409 163.041 435.549L161.985 453.391C161.979 453.489 161.996 453.587 162.034 453.677C162.073 453.767 162.132 453.847 162.207 453.91C162.282 453.973 162.37 454.018 162.466 454.041C162.561 454.064 162.66 454.065 162.756 454.043L167.537 452.939C167.985 452.836 168.389 453.23 168.297 453.68L166.876 460.636C166.781 461.105 167.22 461.505 167.677 461.366L170.631 460.469C171.089 460.33 171.529 460.731 171.432 461.2L169.174 472.126C169.033 472.81 169.942 473.183 170.321 472.597L170.574 472.205L184.569 444.277C184.803 443.81 184.399 443.277 183.885 443.376L178.963 444.326C178.501 444.415 178.108 443.984 178.238 443.532L181.45 432.396C181.581 431.942 181.186 431.511 180.723 431.602Z" fill="url(#paint3_linear_1_2)"/>
<path d="M169.147 254.158H118.503C110.733 254.158 104.435 260.456 104.435 268.226V318.87C104.435 326.639 110.733 332.938 118.503 332.938H169.147C176.916 332.938 183.215 326.639 183.215 318.87V268.226C183.215 260.456 176.916 254.158 169.147 254.158Z" fill="white" fill-opacity="0.1"/>
<path d="M169.147 253.689H118.503C110.474 253.689 103.966 260.197 103.966 268.226V318.87C103.966 326.898 110.474 333.406 118.503 333.406H169.147C177.175 333.406 183.684 326.898 183.684 318.87V268.226C183.684 260.197 177.175 253.689 169.147 253.689Z" stroke="white" stroke-opacity="0.2" stroke-width="0.937853"/>
<path d="M387.667 559.898H337.023C329.253 559.898 322.955 566.196 322.955 573.966V624.61C322.955 632.379 329.253 638.678 337.023 638.678H387.667C395.436 638.678 401.735 632.379 401.735 624.61V573.966C401.735 566.196 395.436 559.898 387.667 559.898Z" fill="white" fill-opacity="0.1"/>
<path d="M387.667 559.43H337.023C328.994 559.43 322.486 565.938 322.486 573.967V624.611C322.486 632.639 328.994 639.148 337.023 639.148H387.667C395.695 639.148 402.204 632.639 402.204 624.611V573.967C402.204 565.938 395.695 559.43 387.667 559.43Z" stroke="white" stroke-opacity="0.2" stroke-width="0.937853"/>
<path d="M336.09 568.339C335.523 568.339 335.1 568.801 335.151 569.366L339.933 623.014C339.984 623.579 340.472 624.166 341.019 624.318L361.315 629.953C361.862 630.105 362.756 630.105 363.303 629.953L383.661 624.309C384.208 624.157 384.697 623.571 384.747 623.006L389.538 569.366C389.589 568.801 389.165 568.339 388.598 568.339H336.09ZM379.352 580.643C379.307 581.147 379.229 582.022 379.178 582.587L379.052 583.994C379.002 584.559 378.929 585.367 378.891 585.79C378.853 586.212 378.817 586.558 378.811 586.558C378.804 586.558 378.335 586.558 377.767 586.558H363.376C362.808 586.558 362.339 586.558 362.333 586.558C362.327 586.558 361.858 586.558 361.29 586.558H353.711C353.144 586.558 352.721 587.02 352.771 587.585L353.213 592.527C353.264 593.092 353.769 593.554 354.337 593.554H361.291C361.858 593.554 362.327 593.554 362.333 593.554C362.34 593.554 362.809 593.554 363.376 593.554H375.329C375.896 593.554 376.774 593.554 377.28 593.554C377.785 593.554 378.161 593.967 378.116 594.471C378.07 594.975 377.991 595.85 377.941 596.415L376.519 612.347C376.468 612.912 376.404 613.634 376.376 613.951C376.348 614.268 375.878 614.652 375.331 614.803L363.338 618.129C362.792 618.28 362.337 618.406 362.329 618.407C362.32 618.409 361.866 618.287 361.319 618.135L349.314 614.804C348.767 614.652 348.279 614.065 348.228 613.5L347.455 604.826C347.405 604.261 347.828 603.799 348.396 603.799H349.491C350.059 603.799 350.987 603.799 351.554 603.799H353.188C353.755 603.799 354.261 604.261 354.311 604.826L354.614 608.222C354.665 608.787 355.154 609.37 355.702 609.518L361.318 611.035C361.865 611.183 362.315 611.304 362.318 611.304C362.32 611.304 362.77 611.182 363.318 611.034L368.944 609.514C369.491 609.366 369.981 608.783 370.032 608.218L370.642 601.415C370.692 600.85 370.27 600.388 369.702 600.388H363.376C362.809 600.388 362.34 600.388 362.333 600.388C362.327 600.388 361.858 600.388 361.291 600.388H348.09C347.522 600.388 347.017 599.925 346.967 599.36L345.47 582.587C345.419 582.022 345.341 581.147 345.296 580.643C345.251 580.139 345.679 579.726 346.246 579.726H361.291C361.858 579.726 362.327 579.726 362.333 579.726C362.34 579.726 362.809 579.726 363.376 579.726H378.402C378.97 579.726 379.397 580.139 379.352 580.643Z" fill="white"/>
</g>
<path d="M403.923 232H395.076V245.492C393.754 245.147 392.663 245.032 391.226 245.032C381.976 245.032 376 250.893 376 259.913C376 269.278 381.631 274.162 392.433 274.162C396.051 274.162 399.384 273.817 403.924 272.955V232H403.923ZM395.076 266.808C393.811 266.98 393.007 267.037 392.03 267.037C387.491 267.037 385.021 264.452 385.021 259.741C385.021 254.915 387.606 252.157 392.088 252.157C393.179 252.157 394.041 252.271 395.076 252.616V266.808ZM418 232.048V241.126H409.152V232.048H418ZM409.152 245.664H418V266.176C418 273.243 417.482 276.632 415.931 279.563C414.495 282.379 412.599 284.159 408.692 286.113L400.475 282.206C404.382 280.367 406.279 278.759 407.485 276.288C408.749 273.76 409.152 270.829 409.152 263.13V245.664Z" fill="white" fill-opacity="0.85"/>
<path d="M272.25 224.6L260.819 229.25L242.025 210.65L230.206 219.95L225.75 217.431V194.569L230.206 192.244L242.025 201.544L260.819 182.75L272.25 187.4V224.6ZM248.419 206L260.625 215.688V196.312L248.419 206ZM230.206 213.169L237.375 206L230.4 198.831L230.206 213.169Z" fill="white" stroke="white" stroke-width="1.9375"/>
<g opacity="0.6" clip-path="url(#clip1_1_2)">
<path d="M448.44 372.449H462.472C466.378 372.449 469.496 369.233 469.496 365.31V351.933C469.496 348.127 466.285 345.267 462.472 344.631C460.059 344.229 457.555 344.047 455.153 344.058C452.751 344.069 450.459 344.274 448.44 344.631C442.496 345.682 441.416 347.879 441.416 351.933V357.288H455.464V359.072H441.416H436.144C432.061 359.072 428.486 361.526 427.368 366.194C426.079 371.545 426.021 374.884 427.368 380.472C428.367 384.63 430.751 387.594 434.834 387.594H439.665V381.176C439.665 376.539 443.676 372.449 448.44 372.449ZM447.556 353.718C446.1 353.718 444.92 352.525 444.92 351.049C444.92 349.568 446.1 348.364 447.556 348.364C449.007 348.364 450.192 349.568 450.192 351.049C450.192 352.525 449.007 353.718 447.556 353.718ZM483.545 366.194C482.535 362.13 480.608 359.072 476.52 359.072H471.248V365.31C471.248 370.147 467.148 374.217 462.472 374.217H448.44C444.597 374.217 441.416 377.506 441.416 381.356V394.732C441.416 398.539 444.727 400.779 448.44 401.87C452.887 403.179 457.151 403.416 462.472 401.87C466.008 400.848 469.496 398.786 469.496 394.732V389.378H455.464V387.594H469.496H476.52C480.603 387.594 482.125 384.746 483.545 380.472C485.011 376.071 484.948 371.839 483.545 366.194ZM463.356 392.948C464.813 392.948 465.992 394.141 465.992 395.616C465.992 397.097 464.813 398.302 463.356 398.302C461.905 398.302 460.72 397.097 460.72 395.616C460.72 394.141 461.905 392.948 463.356 392.948Z" fill="white" stroke="white" stroke-width="0.115234"/>
</g>
<path d="M164.04 297.84V297.84C165.675 297.84 167 299.165 167 300.8V301.92C167 304.173 165.173 306 162.92 306H162.52C158.467 306 155.613 304.453 153.96 301.36C151.293 305.147 147.267 307.04 141.88 307.04V307.04C138.178 307.04 133.64 309.709 133.64 313.411V317.68C133.64 320.066 131.706 322 129.32 322V322C126.934 322 125 320.066 125 317.68V270.32C125 267.934 126.934 266 129.32 266V266C131.706 266 133.64 267.934 133.64 270.32V289.68C133.64 292.613 134.44 294.907 136.04 296.56C137.64 298.16 139.8 298.96 142.52 298.96C145.613 298.96 148.093 298.027 149.96 296.16C151.827 294.24 152.76 291.307 152.76 287.36V270.32C152.76 267.934 154.694 266 157.08 266V266C159.466 266 161.4 267.934 161.4 270.32V295.2C161.4 296 161.64 296.64 162.12 297.12C162.6 297.6 163.24 297.84 164.04 297.84Z" fill="white" fill-opacity="0.8"/>
</g>
<defs>
<radialGradient id="paint0_radial_1_2" cx="0" cy="0" r="1" gradientUnits="userSpaceOnUse" gradientTransform="translate(332 332.938) rotate(90) scale(349.759)">
<stop stop-color="white"/>
<stop offset="1" stop-color="white" stop-opacity="0"/>
</radialGradient>
<linearGradient id="paint1_linear_1_2" x1="141.949" y1="-81.5932" x2="363.282" y2="699.638" gradientUnits="userSpaceOnUse">
<stop offset="0.416946"/>
<stop offset="0.880782" stop-opacity="0.02"/>
</linearGradient>
<linearGradient id="paint2_linear_1_2" x1="144.529" y1="440.397" x2="169.558" y2="474.388" gradientUnits="userSpaceOnUse">
<stop stop-color="white" stop-opacity="0"/>
<stop offset="1" stop-color="white"/>
</linearGradient>
<linearGradient id="paint3_linear_1_2" x1="171.81" y1="432.516" x2="176.958" y2="467.836" gradientUnits="userSpaceOnUse">
<stop offset="0.0001" stop-color="white"/>
</linearGradient>
<clipPath id="clip0_1_2">
<rect width="664" height="665" fill="white"/>
</clipPath>
<clipPath id="clip1_1_2">
<rect width="59" height="59" fill="white" transform="translate(426 344)"/>
</clipPath>
</defs>
</svg>
