<svg width="1080" height="1080" viewBox="0 0 1080 1080" fill="none" xmlns="http://www.w3.org/2000/svg">
<rect width="1080" height="1080" rx="540" fill="#2E85FE"/>
<path d="M759.869 590.454V590.454C778.581 590.454 793.75 605.624 793.75 624.336V637.156C793.75 662.948 772.841 683.857 747.049 683.857H742.47C696.074 683.857 663.413 666.153 644.489 630.746C613.965 674.089 567.874 695.761 506.216 695.761V695.761C463.839 695.761 411.897 726.306 411.897 768.683V817.551C411.897 844.861 389.758 867 362.449 867V867C335.139 867 313 844.861 313 817.551V275.449C313 248.139 335.139 226 362.449 226V226C389.758 226 411.897 248.139 411.897 275.449V497.051C411.897 530.628 421.054 556.878 439.369 575.803C457.683 594.117 482.407 603.274 513.541 603.274C548.949 603.274 577.336 592.591 598.703 571.224C620.07 549.247 630.753 515.671 630.753 470.496V275.449C630.753 248.139 652.892 226 680.201 226V226C707.511 226 729.65 248.139 729.65 275.449V560.236C729.65 569.393 732.397 576.718 737.891 582.213C743.386 587.707 750.711 590.454 759.869 590.454Z" fill="white"/>
</svg>
